<?xml version="1.0" standalone="no"?>
<!DOCTYPE svg PUBLIC "-//W3C//DTD SVG 20010904//EN"
 "http://www.w3.org/TR/2001/REC-SVG-20010904/DTD/svg10.dtd">
<svg version="1.0" xmlns="http://www.w3.org/2000/svg"
 width="700.000000pt" height="700.000000pt" viewBox="0 0 700.000000 700.000000"
 preserveAspectRatio="xMidYMid meet">
<metadata>
Created by potrace 1.11, written by Peter Selinger 2001-2013
</metadata>
<g transform="translate(0.000000,700.000000) scale(0.100000,-0.100000)"
fill="#000000" stroke="none">
<path d="M0 3500 l0 -3500 3500 0 3500 0 0 3500 0 3500 -3500 0 -3500 0 0
-3500z m1930 2365 l0 -435 435 0 435 0 0 -180 0 -180 -435 0 -435 0 0 -435 0
-435 -180 0 -180 0 0 435 0 435 -435 0 -435 0 0 180 0 180 435 0 435 0 0 435
0 435 180 0 180 0 0 -435z m4370 -615 l0 -180 -1050 0 -1050 0 0 180 0 180
1050 0 1050 0 0 -180z m-905 -2339 c63 -28 119 -81 153 -146 23 -43 27 -62 27
-140 0 -78 -4 -97 -27 -140 -129 -244 -464 -226 -574 30 -11 25 -18 67 -18
111 -1 226 231 377 439 285z m-3267 -538 l378 377 117 -118 c64 -65 117 -123
117 -128 0 -5 -168 -177 -372 -381 l-373 -373 375 -375 375 -375 -120 -123
-120 -123 -377 376 -378 375 -377 -375 -378 -376 -120 123 -120 123 375 375
375 375 -373 373 c-204 204 -372 376 -372 381 0 5 53 63 117 128 l117 118 378
-377 378 -378 378 378z m4172 -623 l0 -180 -1050 0 -1050 0 0 180 0 180 1050
0 1050 0 0 -180z m-913 -593 c110 -56 174 -161 174 -282 0 -136 -72 -239 -204
-293 -151 -61 -340 23 -398 177 -66 177 26 361 211 422 50 17 162 4 217 -24z"/>
<path d="M5242 2648 c-16 -16 -15 -33 3 -48 21 -18 55 -3 55 25 0 32 -35 46
-58 23z"/>
<path d="M5224 896 c-11 -29 0 -51 26 -51 21 0 25 5 25 30 0 24 -5 31 -23 33
-13 2 -24 -3 -28 -12z"/>
</g>
</svg>
